# xmcd
#
# Track frame offsets:
# 150
# 15585
# 30139
# 47869
# 66640
# 93016
# 109827
# 134062
# 154427
# 190897
#
# Disc length: 3213 seconds
#
#
# Revision: 0
# Processed by: cddbd v1.5.1PL0 Copyright (c) Steve Scherf et al.
# Submitted via: FreeRIP 2.941 
#
DISCID=860c8b0a
DTITLE=Double Blues Band - Looking For Trouble ?!
DYEAR=1900
DGENRE=Blues
TTITLE0=Looking For Trouble ?!
TTITLE1=School's Out
TTITLE2=Buggy Blue
TTITLE3=Last Train
TTITLE4=That's Why I Love The Blues
TTITLE5=Shao-Lin's Blues
TTITLE6=Got A Woman
TTITLE7=Beer
TTITLE8=Be Mine
TTITLE9=Father Of My Girlfriend
EXTD=
EXTT0=
EXTT1=
EXTT2=
EXTT3=
EXTT4=
EXTT5=
EXTT6=
EXTT7=
EXTT8=
EXTT9=
PLAYORDER=
